<svg width="110" height="40" viewBox="0 0 110 40" fill="none" xmlns="http://www.w3.org/2000/svg">
<path d="M9.22015 31.5591L7.83188 32.9246H3.98568V34.7453H7.17188C7.61188 34.7453 7.9836 34.9046 8.28705 35.2232C8.60567 35.5267 8.76498 35.8984 8.76498 36.3384V37.9315C8.76498 38.3715 8.60567 38.7508 8.28705 39.0694C7.9836 39.3729 7.61188 39.5246 7.17188 39.5246H2.39258V38.1591H7.17188V36.1108H3.98568C3.54568 36.1108 3.16637 35.9591 2.84775 35.6557C2.5443 35.337 2.39258 34.9577 2.39258 34.5177V33.1522C2.39258 32.7122 2.5443 32.3405 2.84775 32.037C3.16637 31.7184 3.54568 31.5591 3.98568 31.5591H9.22015Z" fill="black"/>
<path d="M23.6638 39.5246H17.2914C16.8514 39.5246 16.4721 39.3729 16.1535 39.0694C15.8501 38.7508 15.6983 38.3715 15.6983 37.9315V33.1522C15.6983 32.7122 15.8501 32.3405 16.1535 32.037C16.4721 31.7184 16.8514 31.5591 17.2914 31.5591H22.0707C22.5107 31.5591 22.8825 31.7184 23.1859 32.037C23.5045 32.3405 23.6638 32.7122 23.6638 33.1522V34.7453L22.0707 36.3384H17.519L18.8845 34.9729H22.0707V32.9246H17.2914V38.1591H23.6638V39.5246Z" fill="black"/>
<path d="M36.6353 34.7453H35.0423V32.9246H31.856V39.5246H30.2629V31.5591H31.856V32.697L32.994 31.5591H35.0423C35.4823 31.5591 35.854 31.7184 36.1574 32.037C36.476 32.3405 36.6353 32.7122 36.6353 33.1522V34.7453Z" fill="black"/>
<path d="M50.6239 31.5591L47.5287 39.5246H45.2073L42.2032 31.5591H44.0239L46.186 38.2046H46.6411L48.8032 31.5591H50.6239Z" fill="black"/>
<path d="M58.4738 39.5246H56.8807V32.697L58.4738 31.1039V39.5246Z" fill="black"/>
<path d="M72.5832 31.5591L71.195 32.9246H67.3488V38.1591H72.1281V39.5246H67.3488C66.9088 39.5246 66.5295 39.3729 66.2108 39.0694C65.9074 38.7508 65.7557 38.3715 65.7557 37.9315V33.1522C65.7557 32.7122 65.9074 32.3405 66.2108 32.037C66.5295 31.7184 66.9088 31.5591 67.3488 31.5591H72.5832Z" fill="black"/>
<path d="M86.2411 39.5246H79.8687C79.4287 39.5246 79.0493 39.3729 78.7307 39.0694C78.4273 38.7508 78.2756 38.3715 78.2756 37.9315V33.1522C78.2756 32.7122 78.4273 32.3405 78.7307 32.037C79.0493 31.7184 79.4287 31.5591 79.8687 31.5591H84.6479C85.088 31.5591 85.4597 31.7184 85.7631 32.037C86.0817 32.3405 86.2411 32.7122 86.2411 33.1522V34.7453L84.6479 36.3384H80.0962L81.4617 34.9729H84.6479V32.9246H79.8687V38.1591H86.2411V39.5246Z" fill="black"/>
<path d="M20.668 24.322C20.668 25.378 20.2856 26.2883 19.521 27.053C18.7927 27.7813 17.9005 28.1454 16.8445 28.1454H1.55078V24.322H16.2983V16.6751H5.37422C4.31822 16.6751 3.40788 16.311 2.64319 15.5827C1.91492 14.818 1.55078 13.9077 1.55078 12.8517V5.20479C1.55078 4.14879 1.91492 3.25665 2.64319 2.52838C3.40788 1.76369 4.31822 1.38135 5.37422 1.38135L108.317 1.38123V5.20467L5.92043 5.20479V12.8517H16.8445C17.9005 12.8517 18.7927 13.234 19.521 13.9987C20.2856 14.727 20.668 15.6191 20.668 16.6751V24.322Z" fill="black"/>
<path d="M43.8945 28.1454H40.0711V25.3598L36.7939 28.1454H28.6008C27.5448 28.1454 26.6344 27.7813 25.8697 27.053C25.1415 26.2883 24.7773 25.378 24.7773 24.322V20.4986C24.7773 19.4426 25.1415 18.5504 25.8697 17.8222C26.6344 17.0575 27.5448 16.6751 28.6008 16.6751H39.5249L36.2477 19.8977H28.6008V24.8682H40.0711V12.3055H24.7773L28.0546 9.02823H40.0711C41.1271 9.02823 42.0192 9.41057 42.7475 10.1753C43.5122 10.9035 43.8945 11.7957 43.8945 12.8517V28.1454Z" fill="black"/>
<path d="M66.5407 9.02823L59.1123 28.1454H53.541L46.3311 9.02823H50.7008L55.8897 24.9775H56.9821L62.1711 9.02823H66.5407Z" fill="black"/>
<path d="M86.7461 9.02823L79.3177 28.1454H73.7464L66.5365 9.02823H70.9061L76.0951 24.9775H77.1875L82.3764 9.02823H86.7461Z" fill="black"/>
<path d="M108.317 35.7923C108.317 36.8483 107.935 37.7405 107.17 38.4687C106.442 39.2334 105.55 39.6158 104.494 39.6158H88.6535L91.9308 36.3385H104.494V25.4144L101.762 28.1454H93.0232C91.9672 28.1454 91.0569 27.7813 90.2922 27.053C89.5639 26.2883 89.1998 25.378 89.1998 24.322V9.02823H93.0232V24.8682H104.494V9.02823H108.317V35.7923Z" fill="black"/>
</svg>
